<?xml version="1.0" standalone="no"?><!-- Generator: Gravit.io --><svg xmlns="http://www.w3.org/2000/svg" xmlns:xlink="http://www.w3.org/1999/xlink" style="isolation:isolate" viewBox="20 10 20 20" width="20" height="20"><path d=" M 24.694 10 L 27.662 10 L 30 24.4 L 30 30 L 28.504 30 L 27.582 25.04 L 23.41 25.04 Q 21.73 24.871 20.849 23.832 Q 19.968 22.792 20.001 21.16 L 20.001 15.08 L 25.656 15.08 L 24.694 10 Z  M 22.568 18.04 L 26.218 18.04 L 26.98 22.08 L 23.972 22.08 Q 23.293 21.969 22.941 21.559 Q 22.59 21.149 22.568 20.56 L 22.568 18.04 Z  M 35.306 10 L 32.338 10 L 30 24.4 L 30 30 L 31.496 30 L 32.418 25.04 L 36.59 25.04 Q 38.27 24.871 39.151 23.832 Q 40.032 22.792 39.999 21.16 L 39.999 15.08 L 34.344 15.08 L 35.306 10 Z  M 37.432 18.04 L 33.782 18.04 L 33.02 22.08 L 36.028 22.08 Q 36.707 21.969 37.059 21.559 Q 37.41 21.149 37.432 20.56 L 37.432 18.04 Z " fill-rule="evenodd" fill="rgb(0,0,0)"/></svg>